<svg xmlns="http://www.w3.org/2000/svg" xmlns:xlink="http://www.w3.org/1999/xlink" version="1.1" x="0px" y="0px" viewBox="0 0 20 25" enable-background="new 0 0 20 20" xml:space="preserve"><g><path fill="#000000" d="M16,9H4c-2.2,0-4,1.8-4,4s1.8,4,4,4h12c2.2,0,4-1.8,4-4S18.2,9,16,9z M4,15c-1.1,0-2-0.9-2-2s0.9-2,2-2   s2,0.9,2,2S5.1,15,4,15z M10,15c-1.1,0-2-0.9-2-2s0.9-2,2-2s2,0.9,2,2S11.1,15,10,15z M16,15c-1.1,0-2-0.9-2-2s0.9-2,2-2s2,0.9,2,2   S17.1,15,16,15z"/><path fill="#000000" d="M19.6,4h-8.2l-0.1-0.4C11.1,3.2,10.7,3,10.3,3H5C4.4,3,4,3.4,4,4v4h9l-0.8-2h7.4C19.8,6,20,5.8,20,5.6V4.4   C20,4.2,19.8,4,19.6,4z"/><circle fill="#000000" cx="4" cy="13" r="1"/><circle fill="#000000" cx="10" cy="13" r="1"/><circle fill="#000000" cx="16" cy="13" r="1"/></g><text x="0" y="35" fill="#000000" font-size="5px" font-weight="bold" font-family="'Helvetica Neue', Helvetica, Arial-Unicode, Arial, Sans-serif">Created by ProSymbols</text><text x="0" y="40" fill="#000000" font-size="5px" font-weight="bold" font-family="'Helvetica Neue', Helvetica, Arial-Unicode, Arial, Sans-serif">from the Noun Project</text></svg>