<?xml version="1.0" encoding="utf-8"?>
<!-- Generator: Adobe Illustrator 24.1.1, SVG Export Plug-In . SVG Version: 6.00 Build 0)  -->
<svg version="1.1" id="Warstwa_1" xmlns="http://www.w3.org/2000/svg" xmlns:xlink="http://www.w3.org/1999/xlink" x="0px" y="0px"
	 viewBox="0 0 27 27" style="enable-background:new 0 0 27 27;" xml:space="preserve">
<style type="text/css">
	.st0{clip-path:url(#SVGID_2_);}
	.st1{fill:#012169;}
	.st2{fill:#FFFFFF;}
	.st3{clip-path:url(#SVGID_4_);}
	.st4{fill:#C8102E;}
</style>
<g>
	<defs>
		<circle id="SVGID_1_" cx="13.5" cy="13.5" r="13"/>
	</defs>
	<clipPath id="SVGID_2_">
		<use xlink:href="#SVGID_1_"  style="overflow:visible;"/>
	</clipPath>
	<g class="st0">
		<g>
			<rect x="-4.9" y="-0.1" class="st1" width="37.3" height="27.9"/>
		</g>
		<g>
			<path d="M-4.9,4.3l37,18.5 M32.1,4.3l-37,18.5"/>
			<polygon class="st2" points="31.2,24.5 13.6,15.6 -4.1,24.5 -5.8,21.1 9.4,13.6 -5.8,6 -4.1,2.7 13.6,11.5 31.2,2.7 32.9,6 
				17.7,13.6 32.9,21.1 			"/>
		</g>
		<g>
			<defs>
				<path id="SVGID_3_" d="M-4.9,4.3v9.2h43.1v9.2h-6.2L-4.9,4.3z M-4.9,22.8v3.1h18.5V4.3h18.5L-4.9,22.8z"/>
			</defs>
			<clipPath id="SVGID_4_">
				<use xlink:href="#SVGID_3_"  style="overflow:visible;"/>
			</clipPath>
			<g class="st3">
				<path d="M-4.9,4.3l37,18.5 M32.1,4.3l-37,18.5"/>
				<polygon class="st4" points="31.5,23.9 13.6,14.9 -4.4,23.9 -5.5,21.7 10.8,13.6 -5.5,5.4 -4.4,3.2 13.6,12.2 31.5,3.2 
					32.6,5.4 16.3,13.6 32.6,21.7 				"/>
			</g>
		</g>
		<g>
			<path d="M-4.9,13.6h43.1 M13.6,4.3v21.6"/>
			<polygon class="st2" points="16.6,27.8 10.5,27.8 10.5,16.6 -4.9,16.6 -4.9,10.5 10.5,10.5 10.5,-0.1 16.6,-0.1 16.6,10.5 
				38.2,10.5 38.2,16.6 16.6,16.6 			"/>
		</g>
		<g>
			<path d="M-4.9,13.6h43.1 M13.6,4.3v21.6"/>
			<polygon class="st4" points="15.4,27.8 11.7,27.8 11.7,15.4 -4.9,15.4 -4.9,11.7 11.7,11.7 11.7,-0.1 15.4,-0.1 15.4,11.7 
				38.2,11.7 38.2,15.4 15.4,15.4 			"/>
		</g>
	</g>
</g>
</svg>
